<mxfile host="app.diagrams.net" agent="Mozilla/5.0 (Windows NT 10.0; Win64; x64) AppleWebKit/537.36 (KHTML, like Gecko) Chrome/130.0.0.0 Safari/537.36" version="24.7.7">
  <diagram name="Page-1" id="fffxrHxiANXvcPxjEd6M">
    <mxGraphModel dx="1018" dy="515" grid="1" gridSize="10" guides="1" tooltips="1" connect="1" arrows="1" fold="1" page="1" pageScale="1" pageWidth="850" pageHeight="1100" math="0" shadow="0">
      <root>
        <mxCell id="0" />
        <mxCell id="1" parent="0" />
        <mxCell id="ny8F0-GyYzz4bLwdRKH4-4" value="" style="edgeStyle=orthogonalEdgeStyle;rounded=0;orthogonalLoop=1;jettySize=auto;html=1;" edge="1" parent="1" source="ny8F0-GyYzz4bLwdRKH4-1" target="ny8F0-GyYzz4bLwdRKH4-3">
          <mxGeometry relative="1" as="geometry" />
        </mxCell>
        <mxCell id="ny8F0-GyYzz4bLwdRKH4-5" value="" style="edgeStyle=orthogonalEdgeStyle;rounded=0;orthogonalLoop=1;jettySize=auto;html=1;" edge="1" parent="1" source="ny8F0-GyYzz4bLwdRKH4-1" target="ny8F0-GyYzz4bLwdRKH4-3">
          <mxGeometry relative="1" as="geometry" />
        </mxCell>
        <mxCell id="ny8F0-GyYzz4bLwdRKH4-6" value="" style="edgeStyle=orthogonalEdgeStyle;rounded=0;orthogonalLoop=1;jettySize=auto;html=1;" edge="1" parent="1" source="ny8F0-GyYzz4bLwdRKH4-1" target="ny8F0-GyYzz4bLwdRKH4-3">
          <mxGeometry relative="1" as="geometry" />
        </mxCell>
        <mxCell id="ny8F0-GyYzz4bLwdRKH4-7" value="" style="edgeStyle=orthogonalEdgeStyle;rounded=0;orthogonalLoop=1;jettySize=auto;html=1;" edge="1" parent="1" source="ny8F0-GyYzz4bLwdRKH4-1" target="ny8F0-GyYzz4bLwdRKH4-3">
          <mxGeometry relative="1" as="geometry" />
        </mxCell>
        <mxCell id="ny8F0-GyYzz4bLwdRKH4-8" value="" style="edgeStyle=orthogonalEdgeStyle;rounded=0;orthogonalLoop=1;jettySize=auto;html=1;" edge="1" parent="1" source="ny8F0-GyYzz4bLwdRKH4-1" target="ny8F0-GyYzz4bLwdRKH4-3">
          <mxGeometry relative="1" as="geometry" />
        </mxCell>
        <mxCell id="ny8F0-GyYzz4bLwdRKH4-10" value="" style="edgeStyle=orthogonalEdgeStyle;rounded=0;orthogonalLoop=1;jettySize=auto;html=1;" edge="1" parent="1" source="ny8F0-GyYzz4bLwdRKH4-1" target="ny8F0-GyYzz4bLwdRKH4-9">
          <mxGeometry relative="1" as="geometry" />
        </mxCell>
        <mxCell id="ny8F0-GyYzz4bLwdRKH4-1" value="零件1" style="whiteSpace=wrap;html=1;aspect=fixed;" vertex="1" parent="1">
          <mxGeometry x="20" y="120" width="40" height="40" as="geometry" />
        </mxCell>
        <mxCell id="ny8F0-GyYzz4bLwdRKH4-31" style="edgeStyle=orthogonalEdgeStyle;rounded=0;orthogonalLoop=1;jettySize=auto;html=1;exitX=1;exitY=0.5;exitDx=0;exitDy=0;entryX=0;entryY=0.5;entryDx=0;entryDy=0;" edge="1" parent="1" source="ny8F0-GyYzz4bLwdRKH4-2" target="ny8F0-GyYzz4bLwdRKH4-25">
          <mxGeometry relative="1" as="geometry" />
        </mxCell>
        <mxCell id="ny8F0-GyYzz4bLwdRKH4-32" style="edgeStyle=orthogonalEdgeStyle;rounded=0;orthogonalLoop=1;jettySize=auto;html=1;exitX=1;exitY=0.5;exitDx=0;exitDy=0;entryX=0;entryY=0.5;entryDx=0;entryDy=0;" edge="1" parent="1" source="ny8F0-GyYzz4bLwdRKH4-2" target="ny8F0-GyYzz4bLwdRKH4-26">
          <mxGeometry relative="1" as="geometry" />
        </mxCell>
        <mxCell id="ny8F0-GyYzz4bLwdRKH4-2" value="零件2" style="whiteSpace=wrap;html=1;aspect=fixed;" vertex="1" parent="1">
          <mxGeometry x="20" y="250" width="40" height="40" as="geometry" />
        </mxCell>
        <mxCell id="ny8F0-GyYzz4bLwdRKH4-12" value="" style="edgeStyle=orthogonalEdgeStyle;rounded=0;orthogonalLoop=1;jettySize=auto;html=1;" edge="1" parent="1" source="ny8F0-GyYzz4bLwdRKH4-3" target="ny8F0-GyYzz4bLwdRKH4-11">
          <mxGeometry relative="1" as="geometry" />
        </mxCell>
        <mxCell id="ny8F0-GyYzz4bLwdRKH4-14" value="" style="edgeStyle=orthogonalEdgeStyle;rounded=0;orthogonalLoop=1;jettySize=auto;html=1;" edge="1" parent="1" source="ny8F0-GyYzz4bLwdRKH4-3" target="ny8F0-GyYzz4bLwdRKH4-13">
          <mxGeometry relative="1" as="geometry" />
        </mxCell>
        <mxCell id="ny8F0-GyYzz4bLwdRKH4-3" value="检测" style="whiteSpace=wrap;html=1;aspect=fixed;" vertex="1" parent="1">
          <mxGeometry x="100" y="90" width="40" height="40" as="geometry" />
        </mxCell>
        <mxCell id="ny8F0-GyYzz4bLwdRKH4-41" style="edgeStyle=orthogonalEdgeStyle;rounded=0;orthogonalLoop=1;jettySize=auto;html=1;exitX=1;exitY=0.5;exitDx=0;exitDy=0;" edge="1" parent="1" source="ny8F0-GyYzz4bLwdRKH4-9">
          <mxGeometry relative="1" as="geometry">
            <mxPoint x="310" y="180" as="targetPoint" />
            <Array as="points">
              <mxPoint x="140" y="180" />
            </Array>
          </mxGeometry>
        </mxCell>
        <mxCell id="ny8F0-GyYzz4bLwdRKH4-9" value="不检测" style="whiteSpace=wrap;html=1;aspect=fixed;" vertex="1" parent="1">
          <mxGeometry x="100" y="150" width="40" height="40" as="geometry" />
        </mxCell>
        <mxCell id="ny8F0-GyYzz4bLwdRKH4-16" value="" style="edgeStyle=orthogonalEdgeStyle;rounded=0;orthogonalLoop=1;jettySize=auto;html=1;" edge="1" parent="1" source="ny8F0-GyYzz4bLwdRKH4-11" target="ny8F0-GyYzz4bLwdRKH4-15">
          <mxGeometry relative="1" as="geometry" />
        </mxCell>
        <mxCell id="ny8F0-GyYzz4bLwdRKH4-11" value="不合格" style="whiteSpace=wrap;html=1;aspect=fixed;" vertex="1" parent="1">
          <mxGeometry x="180" y="70" width="40" height="40" as="geometry" />
        </mxCell>
        <mxCell id="ny8F0-GyYzz4bLwdRKH4-13" value="合格" style="whiteSpace=wrap;html=1;aspect=fixed;" vertex="1" parent="1">
          <mxGeometry x="180" y="130" width="40" height="40" as="geometry" />
        </mxCell>
        <mxCell id="ny8F0-GyYzz4bLwdRKH4-15" value="丢弃" style="whiteSpace=wrap;html=1;aspect=fixed;" vertex="1" parent="1">
          <mxGeometry x="250" y="70" width="40" height="40" as="geometry" />
        </mxCell>
        <mxCell id="ny8F0-GyYzz4bLwdRKH4-33" style="edgeStyle=orthogonalEdgeStyle;rounded=0;orthogonalLoop=1;jettySize=auto;html=1;exitX=1;exitY=0.5;exitDx=0;exitDy=0;entryX=0;entryY=0.5;entryDx=0;entryDy=0;" edge="1" parent="1" source="ny8F0-GyYzz4bLwdRKH4-25" target="ny8F0-GyYzz4bLwdRKH4-28">
          <mxGeometry relative="1" as="geometry" />
        </mxCell>
        <mxCell id="ny8F0-GyYzz4bLwdRKH4-36" style="edgeStyle=orthogonalEdgeStyle;rounded=0;orthogonalLoop=1;jettySize=auto;html=1;exitX=1;exitY=0.5;exitDx=0;exitDy=0;entryX=0;entryY=0.75;entryDx=0;entryDy=0;" edge="1" parent="1" source="ny8F0-GyYzz4bLwdRKH4-25" target="ny8F0-GyYzz4bLwdRKH4-29">
          <mxGeometry relative="1" as="geometry" />
        </mxCell>
        <mxCell id="ny8F0-GyYzz4bLwdRKH4-25" value="检测" style="whiteSpace=wrap;html=1;aspect=fixed;" vertex="1" parent="1">
          <mxGeometry x="100" y="210" width="40" height="40" as="geometry" />
        </mxCell>
        <mxCell id="ny8F0-GyYzz4bLwdRKH4-42" style="edgeStyle=orthogonalEdgeStyle;rounded=0;orthogonalLoop=1;jettySize=auto;html=1;exitX=1;exitY=0.5;exitDx=0;exitDy=0;" edge="1" parent="1" source="ny8F0-GyYzz4bLwdRKH4-26">
          <mxGeometry relative="1" as="geometry">
            <mxPoint x="290" y="290" as="targetPoint" />
          </mxGeometry>
        </mxCell>
        <mxCell id="ny8F0-GyYzz4bLwdRKH4-26" value="不检测" style="whiteSpace=wrap;html=1;aspect=fixed;" vertex="1" parent="1">
          <mxGeometry x="100" y="300" width="40" height="40" as="geometry" />
        </mxCell>
        <mxCell id="ny8F0-GyYzz4bLwdRKH4-37" style="edgeStyle=orthogonalEdgeStyle;rounded=0;orthogonalLoop=1;jettySize=auto;html=1;exitX=1;exitY=0.5;exitDx=0;exitDy=0;entryX=0;entryY=0.5;entryDx=0;entryDy=0;" edge="1" parent="1" source="ny8F0-GyYzz4bLwdRKH4-28" target="ny8F0-GyYzz4bLwdRKH4-30">
          <mxGeometry relative="1" as="geometry" />
        </mxCell>
        <mxCell id="ny8F0-GyYzz4bLwdRKH4-28" value="不合格" style="whiteSpace=wrap;html=1;aspect=fixed;" vertex="1" parent="1">
          <mxGeometry x="180" y="200" width="40" height="40" as="geometry" />
        </mxCell>
        <mxCell id="ny8F0-GyYzz4bLwdRKH4-40" style="edgeStyle=orthogonalEdgeStyle;rounded=0;orthogonalLoop=1;jettySize=auto;html=1;exitX=1;exitY=0.5;exitDx=0;exitDy=0;entryX=0;entryY=0.5;entryDx=0;entryDy=0;" edge="1" parent="1" source="ny8F0-GyYzz4bLwdRKH4-29" target="ny8F0-GyYzz4bLwdRKH4-38">
          <mxGeometry relative="1" as="geometry">
            <Array as="points">
              <mxPoint x="310" y="290" />
              <mxPoint x="310" y="220" />
            </Array>
          </mxGeometry>
        </mxCell>
        <mxCell id="ny8F0-GyYzz4bLwdRKH4-29" value="合格" style="whiteSpace=wrap;html=1;aspect=fixed;" vertex="1" parent="1">
          <mxGeometry x="180" y="270" width="40" height="40" as="geometry" />
        </mxCell>
        <mxCell id="ny8F0-GyYzz4bLwdRKH4-30" value="丢弃" style="whiteSpace=wrap;html=1;aspect=fixed;" vertex="1" parent="1">
          <mxGeometry x="250" y="200" width="40" height="40" as="geometry" />
        </mxCell>
        <mxCell id="ny8F0-GyYzz4bLwdRKH4-44" value="" style="edgeStyle=orthogonalEdgeStyle;rounded=0;orthogonalLoop=1;jettySize=auto;html=1;" edge="1" parent="1" source="ny8F0-GyYzz4bLwdRKH4-38" target="ny8F0-GyYzz4bLwdRKH4-43">
          <mxGeometry relative="1" as="geometry" />
        </mxCell>
        <mxCell id="ny8F0-GyYzz4bLwdRKH4-47" value="" style="edgeStyle=orthogonalEdgeStyle;rounded=0;orthogonalLoop=1;jettySize=auto;html=1;" edge="1" parent="1" source="ny8F0-GyYzz4bLwdRKH4-38" target="ny8F0-GyYzz4bLwdRKH4-46">
          <mxGeometry relative="1" as="geometry" />
        </mxCell>
        <mxCell id="ny8F0-GyYzz4bLwdRKH4-38" value="成品" style="whiteSpace=wrap;html=1;aspect=fixed;" vertex="1" parent="1">
          <mxGeometry x="360" y="200" width="40" height="40" as="geometry" />
        </mxCell>
        <mxCell id="ny8F0-GyYzz4bLwdRKH4-39" style="edgeStyle=orthogonalEdgeStyle;rounded=0;orthogonalLoop=1;jettySize=auto;html=1;exitX=1;exitY=0.5;exitDx=0;exitDy=0;entryX=0.019;entryY=0.373;entryDx=0;entryDy=0;entryPerimeter=0;" edge="1" parent="1" source="ny8F0-GyYzz4bLwdRKH4-13" target="ny8F0-GyYzz4bLwdRKH4-38">
          <mxGeometry relative="1" as="geometry">
            <Array as="points">
              <mxPoint x="310" y="150" />
              <mxPoint x="310" y="215" />
            </Array>
          </mxGeometry>
        </mxCell>
        <mxCell id="ny8F0-GyYzz4bLwdRKH4-50" value="" style="edgeStyle=orthogonalEdgeStyle;rounded=0;orthogonalLoop=1;jettySize=auto;html=1;" edge="1" parent="1" source="ny8F0-GyYzz4bLwdRKH4-43" target="ny8F0-GyYzz4bLwdRKH4-49">
          <mxGeometry relative="1" as="geometry">
            <Array as="points">
              <mxPoint x="530" y="180" />
              <mxPoint x="530" y="130" />
            </Array>
          </mxGeometry>
        </mxCell>
        <mxCell id="ny8F0-GyYzz4bLwdRKH4-52" value="" style="edgeStyle=orthogonalEdgeStyle;rounded=0;orthogonalLoop=1;jettySize=auto;html=1;" edge="1" parent="1" source="ny8F0-GyYzz4bLwdRKH4-43" target="ny8F0-GyYzz4bLwdRKH4-51">
          <mxGeometry relative="1" as="geometry" />
        </mxCell>
        <mxCell id="ny8F0-GyYzz4bLwdRKH4-43" value="检测" style="whiteSpace=wrap;html=1;aspect=fixed;" vertex="1" parent="1">
          <mxGeometry x="450" y="160" width="40" height="40" as="geometry" />
        </mxCell>
        <mxCell id="ny8F0-GyYzz4bLwdRKH4-65" value="" style="edgeStyle=orthogonalEdgeStyle;rounded=0;orthogonalLoop=1;jettySize=auto;html=1;" edge="1" parent="1" source="ny8F0-GyYzz4bLwdRKH4-46" target="ny8F0-GyYzz4bLwdRKH4-64">
          <mxGeometry relative="1" as="geometry" />
        </mxCell>
        <mxCell id="ny8F0-GyYzz4bLwdRKH4-46" value="不检测" style="whiteSpace=wrap;html=1;aspect=fixed;" vertex="1" parent="1">
          <mxGeometry x="450" y="240" width="40" height="40" as="geometry" />
        </mxCell>
        <mxCell id="ny8F0-GyYzz4bLwdRKH4-54" value="" style="edgeStyle=orthogonalEdgeStyle;rounded=0;orthogonalLoop=1;jettySize=auto;html=1;" edge="1" parent="1" source="ny8F0-GyYzz4bLwdRKH4-49" target="ny8F0-GyYzz4bLwdRKH4-53">
          <mxGeometry relative="1" as="geometry" />
        </mxCell>
        <mxCell id="ny8F0-GyYzz4bLwdRKH4-56" value="" style="edgeStyle=orthogonalEdgeStyle;rounded=0;orthogonalLoop=1;jettySize=auto;html=1;" edge="1" parent="1" source="ny8F0-GyYzz4bLwdRKH4-49" target="ny8F0-GyYzz4bLwdRKH4-55">
          <mxGeometry relative="1" as="geometry" />
        </mxCell>
        <mxCell id="ny8F0-GyYzz4bLwdRKH4-49" value="不合格" style="whiteSpace=wrap;html=1;aspect=fixed;" vertex="1" parent="1">
          <mxGeometry x="540" y="110" width="40" height="40" as="geometry" />
        </mxCell>
        <mxCell id="ny8F0-GyYzz4bLwdRKH4-63" value="" style="edgeStyle=orthogonalEdgeStyle;rounded=0;orthogonalLoop=1;jettySize=auto;html=1;" edge="1" parent="1" source="ny8F0-GyYzz4bLwdRKH4-51" target="ny8F0-GyYzz4bLwdRKH4-62">
          <mxGeometry relative="1" as="geometry" />
        </mxCell>
        <mxCell id="ny8F0-GyYzz4bLwdRKH4-51" value="合格" style="whiteSpace=wrap;html=1;aspect=fixed;" vertex="1" parent="1">
          <mxGeometry x="540" y="180" width="40" height="40" as="geometry" />
        </mxCell>
        <mxCell id="ny8F0-GyYzz4bLwdRKH4-53" value="丢弃" style="whiteSpace=wrap;html=1;aspect=fixed;" vertex="1" parent="1">
          <mxGeometry x="620" y="70" width="40" height="40" as="geometry" />
        </mxCell>
        <mxCell id="ny8F0-GyYzz4bLwdRKH4-59" value="" style="edgeStyle=orthogonalEdgeStyle;rounded=0;orthogonalLoop=1;jettySize=auto;html=1;" edge="1" parent="1" source="ny8F0-GyYzz4bLwdRKH4-55" target="ny8F0-GyYzz4bLwdRKH4-58">
          <mxGeometry relative="1" as="geometry" />
        </mxCell>
        <mxCell id="ny8F0-GyYzz4bLwdRKH4-61" value="" style="edgeStyle=orthogonalEdgeStyle;rounded=0;orthogonalLoop=1;jettySize=auto;html=1;" edge="1" parent="1" source="ny8F0-GyYzz4bLwdRKH4-55" target="ny8F0-GyYzz4bLwdRKH4-60">
          <mxGeometry relative="1" as="geometry" />
        </mxCell>
        <mxCell id="ny8F0-GyYzz4bLwdRKH4-55" value="拆解" style="whiteSpace=wrap;html=1;aspect=fixed;" vertex="1" parent="1">
          <mxGeometry x="620" y="130" width="40" height="40" as="geometry" />
        </mxCell>
        <mxCell id="ny8F0-GyYzz4bLwdRKH4-58" value="零件1" style="whiteSpace=wrap;html=1;aspect=fixed;" vertex="1" parent="1">
          <mxGeometry x="710" y="90" width="40" height="40" as="geometry" />
        </mxCell>
        <mxCell id="ny8F0-GyYzz4bLwdRKH4-60" value="零件2" style="whiteSpace=wrap;html=1;aspect=fixed;" vertex="1" parent="1">
          <mxGeometry x="710" y="160" width="40" height="40" as="geometry" />
        </mxCell>
        <mxCell id="ny8F0-GyYzz4bLwdRKH4-62" value="出售" style="whiteSpace=wrap;html=1;aspect=fixed;" vertex="1" parent="1">
          <mxGeometry x="620" y="200" width="40" height="40" as="geometry" />
        </mxCell>
        <mxCell id="ny8F0-GyYzz4bLwdRKH4-67" value="" style="edgeStyle=orthogonalEdgeStyle;rounded=0;orthogonalLoop=1;jettySize=auto;html=1;" edge="1" parent="1" source="ny8F0-GyYzz4bLwdRKH4-64" target="ny8F0-GyYzz4bLwdRKH4-66">
          <mxGeometry relative="1" as="geometry" />
        </mxCell>
        <mxCell id="ny8F0-GyYzz4bLwdRKH4-64" value="出售" style="whiteSpace=wrap;html=1;aspect=fixed;" vertex="1" parent="1">
          <mxGeometry x="540" y="250" width="40" height="40" as="geometry" />
        </mxCell>
        <mxCell id="ny8F0-GyYzz4bLwdRKH4-69" value="" style="edgeStyle=orthogonalEdgeStyle;rounded=0;orthogonalLoop=1;jettySize=auto;html=1;" edge="1" parent="1" source="ny8F0-GyYzz4bLwdRKH4-66" target="ny8F0-GyYzz4bLwdRKH4-68">
          <mxGeometry relative="1" as="geometry" />
        </mxCell>
        <mxCell id="ny8F0-GyYzz4bLwdRKH4-66" value="不合格" style="whiteSpace=wrap;html=1;aspect=fixed;" vertex="1" parent="1">
          <mxGeometry x="620" y="260" width="40" height="40" as="geometry" />
        </mxCell>
        <mxCell id="ny8F0-GyYzz4bLwdRKH4-68" value="调换" style="whiteSpace=wrap;html=1;aspect=fixed;" vertex="1" parent="1">
          <mxGeometry x="710" y="260" width="40" height="40" as="geometry" />
        </mxCell>
      </root>
    </mxGraphModel>
  </diagram>
</mxfile>
